<svg xmlns="http://www.w3.org/2000/svg" viewBox="0 0 282 64"><defs><style>.cls-1{fill:#393230;}.cls-2{fill:#9c9897;}.cls-3{fill:#0038d5;}.cls-4{fill:#392e2c;}</style></defs><title>casa-firjan</title><g id="Camada_2" data-name="Camada 2"><g id="Camada_1-2" data-name="Camada 1"><path class="cls-1" d="M162,29.89c0-4.78,3-8.66,8.35-8.66a8.35,8.35,0,0,1,6.56,3.24l-1.54,1.28a6.26,6.26,0,0,0-5-2.54c-3.81,0-6.2,2.8-6.2,6.68,0,4,2.68,6.56,6.23,6.56a6.22,6.22,0,0,0,5-2.54l1.54,1.31a8.09,8.09,0,0,1-6.55,3.18C165.83,38.4,162,35.41,162,29.89Z"/><path class="cls-1" d="M178.83,32.58c0-3.43,2.34-6,5.61-6a4.57,4.57,0,0,1,4,2.21l0,0V26.7h1.91V38.28h-1.84V36.19h0a4.58,4.58,0,0,1-4.11,2.24A5.52,5.52,0,0,1,178.83,32.58Zm9.75,0a3.92,3.92,0,1,0-7.81,0,3.91,3.91,0,1,0,7.81,0Z"/><path class="cls-1" d="M192.86,36.79l1-1.48a4.64,4.64,0,0,0,3.53,1.4c1.4,0,2.2-.69,2.2-1.57s-1.06-1.3-2.74-1.92c-1.87-.67-3.46-1.43-3.46-3.55,0-1.78,1.61-3.11,3.79-3.11a6,6,0,0,1,4,1.43l-1,1.52a4.33,4.33,0,0,0-3-1.24,1.6,1.6,0,0,0-1.78,1.4c0,.91.92,1.36,2.18,1.81,2.44.95,4.05,1.38,4,3.64,0,1.81-1.37,3.31-4.14,3.31A6.65,6.65,0,0,1,192.86,36.79Z"/><path class="cls-1" d="M203.18,32.58c0-3.43,2.35-6,5.61-6a4.57,4.57,0,0,1,4,2.21l0,0V26.7h1.92V38.28h-1.85V36.19h0a4.6,4.6,0,0,1-4.12,2.24A5.52,5.52,0,0,1,203.18,32.58Zm9.75,0a3.92,3.92,0,1,0-7.8,0,3.9,3.9,0,1,0,7.8,0Z"/><path class="cls-1" d="M225,21.4h10.72v1.88H227v5.94h7.33V31.1H227v7.18H225Z"/><path class="cls-1" d="M237.69,23.21a1.4,1.4,0,1,1,1.4,1.38A1.38,1.38,0,0,1,237.69,23.21Zm.43,3.49H240V38.28h-1.92Z"/><path class="cls-1" d="M243.78,26.7h1.91v2.12h.05a4.3,4.3,0,0,1,3.74-2.26,3.7,3.7,0,0,1,.47,0v2.14l-.75,0c-2.21,0-3.51,1.68-3.51,4v5.58h-1.91Z"/><path class="cls-1" d="M249.1,42.76l.31-1.72a2.66,2.66,0,0,0,1.3.36c.85,0,1.37-.57,1.37-1.9V26.7H254V39.5c0,2.26-1.09,3.64-2.91,3.64A4.68,4.68,0,0,1,249.1,42.76Zm2.53-19.55a1.4,1.4,0,1,1,1.4,1.38A1.38,1.38,0,0,1,251.63,23.21Z"/><path class="cls-1" d="M256.68,32.58c0-3.43,2.34-6,5.6-6a4.57,4.57,0,0,1,4,2.21l.05,0V26.7h1.91V38.28h-1.84V36.19h0a4.6,4.6,0,0,1-4.12,2.24A5.51,5.51,0,0,1,256.68,32.58Zm9.75,0a3.92,3.92,0,1,0-7.81,0,3.91,3.91,0,1,0,7.81,0Z"/><path class="cls-1" d="M271.73,26.7h1.92v2.09h0a4.86,4.86,0,0,1,4.19-2.23c2.48,0,4.14,1.55,4.14,4.85v6.87h-1.92V32c0-2.71-1.16-3.64-2.84-3.64-2.17,0-3.59,1.57-3.59,4.19v5.77h-1.92Z"/><rect class="cls-2" x="139.65" y="5.53" width="0.7" height="53.63"/><path class="cls-3" d="M82.34,53.68C62.61,53.68,58.89,64,35.44,64V58.84c22.23,0,25.79-10.32,46.9-10.32Zm0-15.48c-21.11,0-24.67,10.32-46.9,10.32v5.16c23.45,0,27.17-10.31,46.9-10.31Zm0-10.31c-21.11,0-24.67,10.31-46.9,10.31v5.17c23.45,0,27.17-10.32,46.9-10.32Z"/><path class="cls-3" d="M89,22.51a4.19,4.19,0,0,1-1.33-.92l1.06-1.31a3,3,0,0,0,.9.68,2,2,0,0,0,.91.23,1.46,1.46,0,0,0,.5-.08.66.66,0,0,0,.28-.23.62.62,0,0,0,.08-.31.58.58,0,0,0-.24-.49,3.22,3.22,0,0,0-.9-.41l-.5-.18-.47-.21A4.24,4.24,0,0,1,88.8,19a2.64,2.64,0,0,1-.37-.32,1.52,1.52,0,0,1-.29-.39,2.38,2.38,0,0,1-.19-.49,2.73,2.73,0,0,1-.07-.59,2,2,0,0,1,.34-1.14,2.26,2.26,0,0,1,.91-.82,2.66,2.66,0,0,1,1.26-.3,3.92,3.92,0,0,1,2.66,1l-1,1.34a2.74,2.74,0,0,0-1.58-.74.82.82,0,0,0-.51.16.57.57,0,0,0-.19.44.48.48,0,0,0,.23.42,4.07,4.07,0,0,0,.89.43,10.39,10.39,0,0,1,1.3.56,1.92,1.92,0,0,1,.93,1,2.22,2.22,0,0,1,.13.81,2.58,2.58,0,0,1-.17.94,2,2,0,0,1-.46.7,2.41,2.41,0,0,1-.65.47,3,3,0,0,1-.75.26,3.22,3.22,0,0,1-.76.08A3.92,3.92,0,0,1,89,22.51Z"/><path class="cls-3" d="M94.19,15.06h5v1.6H96v1.47h2.55v1.59H96V21.1h3.45v1.61H94.19Z"/><path class="cls-3" d="M107,15.06v7.65h-1.86l-2.9-4.59h0v4.59h-1.8V15.06h1.81l2.95,4.7h0v-4.7Z"/><path class="cls-3" d="M112.76,21.34h-2.69l-.44,1.37h-1.88l2.8-7.65h1.73l2.81,7.65h-1.88Zm-.49-1.53-.84-2.58h0l-.83,2.58Z"/><path class="cls-3" d="M115.86,15.06h1.82v7.65h-1.82Z"/><path class="cls-3" d="M89,32.87A4.19,4.19,0,0,1,87.62,32l1.06-1.31a3.14,3.14,0,0,0,.9.68,2.15,2.15,0,0,0,.91.23,1.24,1.24,0,0,0,.5-.09.58.58,0,0,0,.28-.22.66.66,0,0,0,.08-.32.59.59,0,0,0-.24-.49,3.61,3.61,0,0,0-.9-.4l-.5-.18c-.14-.06-.3-.13-.47-.22a3,3,0,0,1-.44-.26,3.52,3.52,0,0,1-.37-.32,1.57,1.57,0,0,1-.29-.4,2.09,2.09,0,0,1-.19-.48,2.73,2.73,0,0,1-.07-.59,2,2,0,0,1,.34-1.14,2.26,2.26,0,0,1,.91-.82,2.79,2.79,0,0,1,1.26-.31,4,4,0,0,1,2.66,1l-1,1.34a2.74,2.74,0,0,0-1.58-.74.76.76,0,0,0-.51.16.55.55,0,0,0-.19.44.49.49,0,0,0,.23.42,4.74,4.74,0,0,0,.89.42,11.67,11.67,0,0,1,1.3.57,1.94,1.94,0,0,1,.93,1,2.3,2.3,0,0,1,.13.81,2.59,2.59,0,0,1-.17.95,2.08,2.08,0,0,1-.46.7,2.38,2.38,0,0,1-.65.46,2.71,2.71,0,0,1-.75.27,3.84,3.84,0,0,1-.76.08A3.92,3.92,0,0,1,89,32.87Z"/><path class="cls-3" d="M94.19,25.41h5V27H96v1.47h2.55v1.58H96v1.39h3.45v1.61H94.19Z"/><path class="cls-3" d="M101.3,32.87A4.19,4.19,0,0,1,100,32L101,30.64a3.14,3.14,0,0,0,.9.68,2.15,2.15,0,0,0,.91.23,1.24,1.24,0,0,0,.5-.09.58.58,0,0,0,.28-.22.66.66,0,0,0,.08-.32.59.59,0,0,0-.24-.49,3.44,3.44,0,0,0-.9-.4l-.5-.18c-.14-.06-.3-.13-.47-.22a3,3,0,0,1-.44-.26,3.52,3.52,0,0,1-.37-.32,1.57,1.57,0,0,1-.29-.4,2.09,2.09,0,0,1-.19-.48,2.73,2.73,0,0,1-.07-.59,2,2,0,0,1,.34-1.14,2.26,2.26,0,0,1,.91-.82,2.79,2.79,0,0,1,1.26-.31,4,4,0,0,1,2.66,1l-1,1.34a2.74,2.74,0,0,0-1.58-.74.76.76,0,0,0-.51.16.55.55,0,0,0-.19.44.49.49,0,0,0,.23.42,4.74,4.74,0,0,0,.89.42,10.85,10.85,0,0,1,1.3.57,1.94,1.94,0,0,1,.93,1,2.3,2.3,0,0,1,.13.81,2.59,2.59,0,0,1-.17.95,2.08,2.08,0,0,1-.46.7,2.38,2.38,0,0,1-.65.46,2.71,2.71,0,0,1-.75.27,3.82,3.82,0,0,1-.75.08A3.94,3.94,0,0,1,101.3,32.87Z"/><path class="cls-3" d="M106.59,25.41h1.82v7.66h-1.82Z"/><path class="cls-3" d="M88.15,35.77H90v7.65H88.15Z"/><path class="cls-3" d="M91.35,35.77h5v1.61H93.12v1.47h2.55v1.58H93.12v1.39h3.45v1.6H91.35Z"/><path class="cls-3" d="M97.61,35.77h1.81v6h3.21v1.6h-5Z"/><path class="cls-3" d="M90.54,53.71a3.55,3.55,0,0,1-1.07-.48,3.78,3.78,0,0,1-.86-.78,3.49,3.49,0,0,1-.58-1.1,4.32,4.32,0,0,1-.2-1.37A4.6,4.6,0,0,1,88,48.73a3.73,3.73,0,0,1,.5-1.09,3.84,3.84,0,0,1,.8-.86,3.68,3.68,0,0,1,1.1-.56,4.63,4.63,0,0,1,1.37-.2,4,4,0,0,1,1.08.15,4.2,4.2,0,0,1,2,1.33l-1.32,1.13a2.7,2.7,0,0,0-.78-.63,2,2,0,0,0-1.53-.19,2.1,2.1,0,0,0-.49.2,1.57,1.57,0,0,0-.41.32,2,2,0,0,0-.33.44,2.73,2.73,0,0,0-.2.55,2.84,2.84,0,0,0-.08.66,2.5,2.5,0,0,0,.25,1.1,1.89,1.89,0,0,0,.73.78,1.93,1.93,0,0,0,1.07.29,2.24,2.24,0,0,0,1-.23,2.48,2.48,0,0,0,.79-.64l1.32,1.13a3.94,3.94,0,0,1-1.32,1.06,3.84,3.84,0,0,1-1.77.4A4.49,4.49,0,0,1,90.54,53.71Z"/><path class="cls-3" d="M95.78,46.13H97.6v7.65H95.78Z"/><path class="cls-3" d="M103,53.78l-1.57-2.47h-.63v2.47H99V46.13h3a3.55,3.55,0,0,1,1.22.19,2.29,2.29,0,0,1,.86.56,2.57,2.57,0,0,1,.49.83,3.23,3.23,0,0,1,.16,1.06,2.66,2.66,0,0,1-.36,1.43,2.27,2.27,0,0,1-1.06.86v0l1.8,2.69Zm-2.2-4h.83a1.39,1.39,0,0,0,.91-.28.87.87,0,0,0,.34-.73.94.94,0,0,0-.32-.73,1.29,1.29,0,0,0-.9-.28h-.86Z"/><path class="cls-3" d="M106.26,53.62a2.4,2.4,0,0,1-1-.74l1-1.27a1.33,1.33,0,0,0,.26.27,1.3,1.3,0,0,0,.34.21,1,1,0,0,0,.37.08q.78,0,.78-1.11V46.13h1.8V51a5.64,5.64,0,0,1-.08,1,2.93,2.93,0,0,1-.26.79,2,2,0,0,1-.46.61,2,2,0,0,1-.7.38,3.07,3.07,0,0,1-1,.13A2.75,2.75,0,0,1,106.26,53.62Z"/><path class="cls-4" d="M52.84,23A7.35,7.35,0,0,1,50,22.42a6.76,6.76,0,0,1-2.28-1.6,7.15,7.15,0,0,1-1.47-2.49,9.36,9.36,0,0,1-.54-3.23,9.31,9.31,0,0,1,.54-3.2,7.43,7.43,0,0,1,1.46-2.52,6.58,6.58,0,0,1,5-2.2,5.28,5.28,0,0,1,4.2,1.9h0V7.46h4.89v9.42c0,1.31.33,1.84,1.21,1.84.24,0,.53,0,.83-.06v4.07a7.38,7.38,0,0,1-2.21.27,5.5,5.5,0,0,1-2.69-.59,3.49,3.49,0,0,1-1.49-1.78h-.06A4.78,4.78,0,0,1,52.84,23ZM17.37,7.46H22.2V17c0,1.2.3,1.71,1.1,1.71a2.21,2.21,0,0,0,.59-.06v4.12a7,7,0,0,1-2.24.26c-2.85,0-4.28-1.53-4.28-4.61Zm21.06,0h4.86V23.28c0,3.92-1.92,5.88-5.74,5.88A13.23,13.23,0,0,1,35.44,29V24.79c.49,0,.81.06,1,.06,1.34,0,2-.59,2-2.15ZM0,.57H15V5.23H5.13v5h8.12v4.63H5.13v7.88H0ZM17.75,4.75a2.49,2.49,0,0,1-.84-1.94,2.51,2.51,0,0,1,.39-1.39,2.7,2.7,0,0,1,1.05-1A3.07,3.07,0,0,1,19.8.12a2.92,2.92,0,0,1,2.06.76,2.49,2.49,0,0,1,.83,1.93,2.48,2.48,0,0,1-.83,1.94,3.16,3.16,0,0,1-4.11,0Zm21-.12a2.48,2.48,0,0,1-.83-1.94A2.47,2.47,0,0,1,38.77.76a3.17,3.17,0,0,1,4.12,0,2.5,2.5,0,0,1,.83,1.93,2.51,2.51,0,0,1-.83,1.94,3.17,3.17,0,0,1-4.12,0ZM25.6,22.71V7.46h4.87V9.71C31.22,8.05,33,7.1,35.23,7.1a11.9,11.9,0,0,1,1.27.1v4.57a8.11,8.11,0,0,0-1.63-.16c-2.77,0-4.4,1.56-4.4,4.27v6.83Zm30.5-4.87a3.82,3.82,0,0,0,1-2.72,4.31,4.31,0,0,0-.43-2,3.43,3.43,0,0,0-1.22-1.36,3.37,3.37,0,0,0-4.18.57,3.88,3.88,0,0,0-1,2.75,3.86,3.86,0,0,0,1,2.72,3.35,3.35,0,0,0,4.87,0Zm24.65-1c0,1.27.26,1.72,1.07,1.72h.33l.19,0v4.11a6.35,6.35,0,0,1-2.11.23c-2.9,0-4.34-1.56-4.34-4.7V14.65c0-2.16-.86-3.35-2.38-3.35s-2.85,1.1-2.85,3.76v7.65H65.79V7.46h4.87V9.31h0a6.25,6.25,0,0,1,2.08-1.59,6.08,6.08,0,0,1,2.53-.54,6.81,6.81,0,0,1,2.21.32,4.66,4.66,0,0,1,1.71,1.06,4.76,4.76,0,0,1,1.15,2,10.28,10.28,0,0,1,.39,3Z"/></g></g></svg>