<svg xmlns="http://www.w3.org/2000/svg" viewBox="0 0 191.57 44"><defs><style>.cls-1{fill:#fff;}</style></defs><title>logo-firjan</title><g id="Camada_2" data-name="Camada 2"><g id="Camada_1-2" data-name="Camada 1"><g id="Arte_2" data-name="Arte 2"><path class="cls-1" d="M152,32.2c-22.29,0-26.5,11.66-53,11.66V38c25.12,0,29.15-11.66,53-11.66Zm0-17.5c-23.85,0-27.88,11.67-53,11.67V32.2c26.5,0,30.71-11.66,53-11.66Zm0-11.65c-23.85,0-27.88,11.65-53,11.65v5.84c26.5,0,30.71-11.66,53-11.66Z"/><path class="cls-1" d="M159.11,8.54a4.6,4.6,0,0,1-1.51-1L158.8,6a3.44,3.44,0,0,0,1,.77,2.48,2.48,0,0,0,1,.26,1.34,1.34,0,0,0,.56-.1.64.64,0,0,0,.32-.25.69.69,0,0,0,.09-.36.66.66,0,0,0-.26-.55,3.81,3.81,0,0,0-1-.46l-.56-.2c-.16-.07-.34-.15-.53-.25a3.3,3.3,0,0,1-.5-.29,2.8,2.8,0,0,1-.41-.37,2.05,2.05,0,0,1-.34-.45,2.43,2.43,0,0,1-.2-.54,2.41,2.41,0,0,1-.08-.67,2.34,2.34,0,0,1,.37-1.29,2.62,2.62,0,0,1,1-.92A3.15,3.15,0,0,1,160.73,0a4.48,4.48,0,0,1,3,1.13l-1.16,1.51a3.08,3.08,0,0,0-1.78-.83.86.86,0,0,0-.58.18.59.59,0,0,0-.21.49.56.56,0,0,0,.25.48,4.81,4.81,0,0,0,1,.48,13.36,13.36,0,0,1,1.47.63,2.21,2.21,0,0,1,1,1.12,2.61,2.61,0,0,1,.15.92,2.68,2.68,0,0,1-.2,1.07,2.34,2.34,0,0,1-.51.79,3.07,3.07,0,0,1-.74.52,3.53,3.53,0,0,1-.84.3,4.12,4.12,0,0,1-.86.09A4.28,4.28,0,0,1,159.11,8.54Z"/><path class="cls-1" d="M165,.11h5.65V1.93H167V3.59h2.88V5.38H167V7h3.91V8.76H165Z"/><path class="cls-1" d="M179.53.11V8.76h-2.09l-3.29-5.18h0V8.76h-2V.11h2l3.34,5.32h0V.11Z"/><path class="cls-1" d="M186,7.22h-3l-.5,1.54h-2.13L183.52.11h1.95l3.18,8.65h-2.13Zm-.55-1.73-1-2.92h0l-.94,2.92Z"/><path class="cls-1" d="M189.51.11h2.06V8.76h-2.06Z"/><path class="cls-1" d="M159.11,20.24a4.57,4.57,0,0,1-1.51-1l1.2-1.49a3.48,3.48,0,0,0,1,.78,2.48,2.48,0,0,0,1,.26,1.52,1.52,0,0,0,.56-.1.7.7,0,0,0,.32-.25.74.74,0,0,0,.09-.36.7.7,0,0,0-.26-.56,4.23,4.23,0,0,0-1-.45l-.56-.21a4.68,4.68,0,0,1-.53-.24,4.4,4.4,0,0,1-.5-.3,2.71,2.71,0,0,1-.41-.36,2.05,2.05,0,0,1-.34-.45,2.52,2.52,0,0,1-.2-.55,2.3,2.3,0,0,1-.08-.66,2.34,2.34,0,0,1,.37-1.29,2.73,2.73,0,0,1,1-.93,3.27,3.27,0,0,1,1.43-.34,4.48,4.48,0,0,1,3,1.13l-1.16,1.51a3,3,0,0,0-1.78-.84.86.86,0,0,0-.58.18.63.63,0,0,0-.21.5.53.53,0,0,0,.25.47,4.81,4.81,0,0,0,1,.48,12.83,12.83,0,0,1,1.47.64,2.21,2.21,0,0,1,1,1.12,2.55,2.55,0,0,1,.15.91,2.65,2.65,0,0,1-.2,1.07,2.25,2.25,0,0,1-.51.79,3.1,3.1,0,0,1-.74.53,3.53,3.53,0,0,1-.84.3,4.12,4.12,0,0,1-.86.09A4.29,4.29,0,0,1,159.11,20.24Z"/><path class="cls-1" d="M165,11.82h5.65v1.82H167V15.3h2.88v1.79H167v1.57h3.91v1.81H165Z"/><path class="cls-1" d="M173.06,20.24a4.63,4.63,0,0,1-1.5-1l1.2-1.49a3.48,3.48,0,0,0,1,.78,2.45,2.45,0,0,0,1,.26,1.52,1.52,0,0,0,.56-.1.7.7,0,0,0,.32-.25.74.74,0,0,0,.09-.36.68.68,0,0,0-.27-.56,3.94,3.94,0,0,0-1-.45l-.56-.21a4.68,4.68,0,0,1-.53-.24,4.4,4.4,0,0,1-.5-.3,2.71,2.71,0,0,1-.41-.36,2.05,2.05,0,0,1-.34-.45,2.52,2.52,0,0,1-.2-.55,2.29,2.29,0,0,1-.09-.66,2.35,2.35,0,0,1,.38-1.29,2.73,2.73,0,0,1,1-.93,3.24,3.24,0,0,1,1.43-.34,4.49,4.49,0,0,1,3,1.13l-1.16,1.51a3,3,0,0,0-1.78-.84.86.86,0,0,0-.58.18.67.67,0,0,0-.22.5.56.56,0,0,0,.26.47,4.81,4.81,0,0,0,1,.48,13.72,13.72,0,0,1,1.47.64,2.21,2.21,0,0,1,1.05,1.12,2.55,2.55,0,0,1,.15.91,2.83,2.83,0,0,1-.2,1.07,2.25,2.25,0,0,1-.51.79,3.1,3.1,0,0,1-.74.53,3.53,3.53,0,0,1-.84.3,4.12,4.12,0,0,1-.86.09A4.37,4.37,0,0,1,173.06,20.24Z"/><path class="cls-1" d="M179,11.82h2.06v8.65H179Z"/><path class="cls-1" d="M158.2,23.53h2.06v8.64H158.2Z"/><path class="cls-1" d="M161.81,23.53h5.65v1.81h-3.65V27h2.88v1.79h-2.88v1.57h3.91v1.81h-5.91Z"/><path class="cls-1" d="M168.89,23.53h2.05v6.83h3.62v1.81h-5.67Z"/><path class="cls-1" d="M160.9,43.81a4.48,4.48,0,0,1-1.22-.55,4.1,4.1,0,0,1-1-.89,3.77,3.77,0,0,1-.64-1.23,4.9,4.9,0,0,1-.24-1.56,5.05,5.05,0,0,1,.19-1.41,4,4,0,0,1,.56-1.23,4.11,4.11,0,0,1,.9-1,3.89,3.89,0,0,1,1.25-.64,5.14,5.14,0,0,1,1.55-.23,4.66,4.66,0,0,1,3.49,1.67l-1.5,1.28a2.89,2.89,0,0,0-.87-.71,2.2,2.2,0,0,0-1.12-.29,2.48,2.48,0,0,0-.61.07,2.45,2.45,0,0,0-.55.23,2.17,2.17,0,0,0-.84.86,2.28,2.28,0,0,0-.23.62,3,3,0,0,0-.09.74,2.74,2.74,0,0,0,.29,1.25,2.15,2.15,0,0,0,.81.88,2.3,2.3,0,0,0,1.22.33,2.38,2.38,0,0,0,1.1-.27,2.62,2.62,0,0,0,.89-.71l1.5,1.28a4.52,4.52,0,0,1-1.5,1.19,4.23,4.23,0,0,1-2,.46A5.22,5.22,0,0,1,160.9,43.81Z"/><path class="cls-1" d="M166.83,35.23h2v8.65h-2Z"/><path class="cls-1" d="M174.93,43.88l-1.77-2.79h-.71v2.79h-2V35.23h3.37a3.9,3.9,0,0,1,1.37.23,2.29,2.29,0,0,1,1,.62,2.8,2.8,0,0,1,.56.94,3.77,3.77,0,0,1,.19,1.2,2.9,2.9,0,0,1-.42,1.61,2.52,2.52,0,0,1-1.19,1v0l2,3Zm-2.48-4.57h.94a1.56,1.56,0,0,0,1-.31,1,1,0,0,0,.38-.83,1,1,0,0,0-.36-.82,1.5,1.5,0,0,0-1-.32h-1Z"/><path class="cls-1" d="M178.66,43.71a2.79,2.79,0,0,1-1.07-.85l1.17-1.43a2.91,2.91,0,0,0,.3.31,1.67,1.67,0,0,0,.39.23,1.06,1.06,0,0,0,.42.09q.87,0,.87-1.26V35.23h2v5.52a5.89,5.89,0,0,1-.09,1.08,3.65,3.65,0,0,1-.29.9,2.11,2.11,0,0,1-.53.68,2.27,2.27,0,0,1-.78.44A3.57,3.57,0,0,1,180,44,3.38,3.38,0,0,1,178.66,43.71Z"/><path class="cls-1" d="M59.73,32.54a8.09,8.09,0,0,1-3.27-.65,7.56,7.56,0,0,1-2.58-1.81,8,8,0,0,1-1.67-2.82,11.28,11.28,0,0,1,0-7.26,8.65,8.65,0,0,1,1.65-2.85,7.5,7.5,0,0,1,2.51-1.83,7.37,7.37,0,0,1,3.1-.66,6,6,0,0,1,4.75,2.15h.06V15H69.8V25.63c0,1.48.37,2.08,1.38,2.08.26,0,.59,0,.93-.07v4.6a8.46,8.46,0,0,1-2.49.3,6.24,6.24,0,0,1-3.05-.66,4,4,0,0,1-1.68-2h-.07S63.6,32.54,59.73,32.54ZM19.63,15H25.1V25.74c0,1.35.33,1.94,1.24,1.94A2.11,2.11,0,0,0,27,27.6v4.66a7.56,7.56,0,0,1-2.53.3c-3.23,0-4.84-1.73-4.84-5.21Zm23.81,0h5.49V32.87c0,4.43-2.17,6.64-6.48,6.64a14.32,14.32,0,0,1-2.4-.16V34.57c.56,0,.92.06,1.18.06,1.51,0,2.21-.65,2.21-2.43ZM0,7.2H16.92v5.26H5.79v5.62H15v5.23H5.79v8.91H0Zm20.06,4.72a2.82,2.82,0,0,1-.94-2.19,2.83,2.83,0,0,1,.44-1.58,3.07,3.07,0,0,1,1.18-1.08,3.6,3.6,0,0,1,1.64-.38,3.28,3.28,0,0,1,2.33.86,2.8,2.8,0,0,1,.94,2.18,2.82,2.82,0,0,1-.94,2.19,3.57,3.57,0,0,1-4.65,0Zm23.76-.13a2.85,2.85,0,0,1-.94-2.2,2.81,2.81,0,0,1,.94-2.18,3.57,3.57,0,0,1,4.65,0,2.81,2.81,0,0,1,.94,2.18,2.85,2.85,0,0,1-.94,2.2,3.6,3.6,0,0,1-4.65,0ZM28.93,32.22V15h5.51v2.55c.84-1.88,2.83-3,5.38-3a13.34,13.34,0,0,1,1.44.12v5.17a8.77,8.77,0,0,0-1.85-.19c-3.13,0-5,1.77-5,4.83v7.72Zm34.48-5.5a4.37,4.37,0,0,0,1.1-3.08,4.83,4.83,0,0,0-.5-2.21,3.8,3.8,0,0,0-1.37-1.54,3.56,3.56,0,0,0-1.94-.55,3.63,3.63,0,0,0-2.78,1.19,4.38,4.38,0,0,0-1.1,3.11,4.4,4.4,0,0,0,1.08,3.08,3.81,3.81,0,0,0,5.51,0Zm27.86-1.09c0,1.44.29,1.95,1.21,1.95h.37l.22,0v4.65a7.32,7.32,0,0,1-2.39.26c-3.28,0-4.9-1.77-4.9-5.31v-4c0-2.44-1-3.79-2.69-3.79s-3.23,1.24-3.23,4.25v8.65h-5.5V15h5.5v2.08h0a6.88,6.88,0,0,1,2.35-1.79,6.81,6.81,0,0,1,2.86-.62A7.59,7.59,0,0,1,87.6,15a5.14,5.14,0,0,1,1.93,1.2,5.25,5.25,0,0,1,1.3,2.25,11.34,11.34,0,0,1,.45,3.4Z"/></g></g></g></svg>