<svg xmlns="http://www.w3.org/2000/svg" xmlns:xlink="http://www.w3.org/1999/xlink" viewBox="0 0 187.02 40"><defs><style>.cls-1{fill:none;}.cls-2{clip-path:url(#clip-path);}.cls-3{fill:#fff;}</style><clipPath id="clip-path" transform="translate(0 0)"><rect class="cls-1" width="187.02" height="40"/></clipPath></defs><title>logo-firjan-iel</title><g id="Camada_2" data-name="Camada 2"><g id="Camada_1-2" data-name="Camada 1"><g id="Logo_IEL_Horizontal_Branca" data-name="Logo IEL Horizontal Branca"><g class="cls-2"><g class="cls-2"><path class="cls-3" d="M149,28.57C127.12,28.57,123,40,97,40V34.28c24.62,0,28.57-11.42,51.94-11.42Zm0-17.14c-23.37,0-27.32,11.43-51.94,11.43v5.71c26,0,30.1-11.43,51.94-11.43ZM149,0C125.59,0,121.64,11.43,97,11.43v5.71c26,0,30.1-11.42,51.94-11.42Z" transform="translate(0 0)"/><rect class="cls-3" x="155.31" y="11.8" width="3.99" height="16.76"/><polygon class="cls-3" points="162.31 11.8 173.25 11.8 173.25 15.32 166.18 15.32 166.18 18.54 171.77 18.54 171.77 22 166.18 22 166.18 25.05 173.75 25.05 173.75 28.56 162.31 28.56 162.31 11.8"/><polygon class="cls-3" points="176.03 11.8 180 11.8 180 25.05 187.02 25.05 187.02 28.56 176.03 28.56 176.03 11.8"/><path class="cls-3" d="M58.53,28.88a8,8,0,0,1-3.2-.64,7.5,7.5,0,0,1-2.53-1.77,8.06,8.06,0,0,1-1.63-2.77,11,11,0,0,1,0-7.11,8.14,8.14,0,0,1,1.62-2.79,7.32,7.32,0,0,1,5.49-2.45,5.85,5.85,0,0,1,4.65,2.11H63V11.67h5.4V22.11c0,1.44.37,2,1.36,2,.25,0,.58,0,.91-.07v4.52a8.53,8.53,0,0,1-2.44.29,6.17,6.17,0,0,1-3-.65,4,4,0,0,1-1.64-2h-.06a5.32,5.32,0,0,1-5,2.62M19.24,11.67h5.35V22.21c0,1.33.33,1.9,1.22,1.9a2.26,2.26,0,0,0,.66-.07V28.6a7.43,7.43,0,0,1-2.49.29c-3.16,0-4.74-1.69-4.74-5.1Zm23.33,0H48V29.2c0,4.34-2.13,6.5-6.35,6.5a13.85,13.85,0,0,1-2.35-.15V30.86c.54,0,.9.07,1.15.07,1.49,0,2.17-.65,2.17-2.38ZM0,4H16.58V9.2H5.68v5.51h9v5.12h-9v8.73H0ZM19.65,8.67a2.8,2.8,0,0,1-.92-2.15A2.83,2.83,0,0,1,19.17,5a2.94,2.94,0,0,1,1.16-1,3.44,3.44,0,0,1,1.61-.38,3.28,3.28,0,0,1,2.28.84,2.78,2.78,0,0,1,.92,2.14,2.8,2.8,0,0,1-.92,2.15,3.53,3.53,0,0,1-4.57,0m23.29-.13A2.8,2.8,0,0,1,42,6.38a2.77,2.77,0,0,1,.92-2.13,3.28,3.28,0,0,1,2.28-.84,3.24,3.24,0,0,1,2.28.84,2.75,2.75,0,0,1,.93,2.13,2.78,2.78,0,0,1-.93,2.16,3.24,3.24,0,0,1-2.28.84,3.28,3.28,0,0,1-2.28-.84m-14.58,20V11.67h5.39v2.49c.83-1.83,2.78-2.89,5.28-2.89a12.17,12.17,0,0,1,1.4.11v5.07a8.35,8.35,0,0,0-1.8-.19c-3.08,0-4.88,1.74-4.88,4.74v7.56Zm33.78-5.39a4.27,4.27,0,0,0,1.08-3A4.71,4.71,0,0,0,62.73,18a3.68,3.68,0,0,0-1.34-1.5,3.5,3.5,0,0,0-1.9-.54,3.56,3.56,0,0,0-2.73,1.17,4.3,4.3,0,0,0-1.08,3,4.34,4.34,0,0,0,1.06,3,3.55,3.55,0,0,0,2.73,1.16,3.51,3.51,0,0,0,2.67-1.16M89.45,22.1c0,1.41.28,1.91,1.18,1.91H91l.22,0v4.55a7.11,7.11,0,0,1-2.35.25c-3.21,0-4.8-1.73-4.8-5.2V19.64c0-2.4-1-3.72-2.63-3.72s-3.16,1.22-3.16,4.16v8.48h-5.4V11.67h5.4v2h0A6.87,6.87,0,0,1,80.61,12a6.54,6.54,0,0,1,2.8-.61,7.58,7.58,0,0,1,2.44.37,4.92,4.92,0,0,1,1.89,1.17A5.17,5.17,0,0,1,89,15.1a11.27,11.27,0,0,1,.43,3.33Z" transform="translate(0 0)"/></g></g></g></g></g></svg>