<svg xmlns="http://www.w3.org/2000/svg" xmlns:xlink="http://www.w3.org/1999/xlink" viewBox="0 0 202.95 40"><defs><style>.cls-1{fill:none;}.cls-2{clip-path:url(#clip-path);}.cls-3{fill:#fff;}</style><clipPath id="clip-path" transform="translate(0 0)"><rect class="cls-1" width="202.95" height="40"/></clipPath></defs><title>logo-firjan-cirj</title><g id="Camada_2" data-name="Camada 2"><g id="Camada_1-2" data-name="Camada 1"><g id="Logo_CIRJ_Horizontal_Branca" data-name="Logo CIRJ Horizontal Branca"><g class="cls-2"><g class="cls-2"><path class="cls-3" d="M149,28.57C127.12,28.57,123,40,97,40V34.29c24.63,0,28.57-11.43,52-11.43Zm0-17.14c-23.38,0-27.32,11.43-51.95,11.43v5.71c26,0,30.1-11.43,52-11.43ZM149,0C125.59,0,121.65,11.43,97,11.43v5.71c26,0,30.1-11.42,52-11.42Z" transform="translate(0 0)"/><path class="cls-3" d="M160.55,28.41a8,8,0,0,1-2.36-1.06,7.86,7.86,0,0,1-1.88-1.71,7.6,7.6,0,0,1-1.26-2.4,9.69,9.69,0,0,1-.45-3,10.24,10.24,0,0,1,.36-2.74,8.19,8.19,0,0,1,1.09-2.38,8,8,0,0,1,1.75-1.87A7.61,7.61,0,0,1,160.21,12a9.74,9.74,0,0,1,3-.44,8.62,8.62,0,0,1,2.36.33A8.49,8.49,0,0,1,167.91,13,8.34,8.34,0,0,1,170,14.8l-2.89,2.47a6,6,0,0,0-1.69-1.38,4.47,4.47,0,0,0-2.17-.56,4.66,4.66,0,0,0-1.18.15,4.23,4.23,0,0,0-1.07.44,3.81,3.81,0,0,0-.91.7,4.57,4.57,0,0,0-.71,1,4.68,4.68,0,0,0-.46,1.21,6.52,6.52,0,0,0-.16,1.43,5.21,5.21,0,0,0,.55,2.41,4.22,4.22,0,0,0,1.58,1.72,4.46,4.46,0,0,0,2.36.64,4.67,4.67,0,0,0,2.14-.53,5.07,5.07,0,0,0,1.72-1.38L170,25.56a8.47,8.47,0,0,1-2.89,2.32,8.37,8.37,0,0,1-3.86.88,9.78,9.78,0,0,1-2.67-.35" transform="translate(0 0)"/><rect class="cls-3" x="172.03" y="11.8" width="3.99" height="16.76"/><path class="cls-3" d="M187.74,28.56l-3.43-5.4h-1.38v5.4H179V11.8h6.54a7.63,7.63,0,0,1,2.67.43,4.61,4.61,0,0,1,1.87,1.22,5.06,5.06,0,0,1,1.08,1.82,7.08,7.08,0,0,1,.36,2.31,5.69,5.69,0,0,1-.8,3.13,4.82,4.82,0,0,1-2.31,1.89v.06l3.93,5.9Zm-4.81-8.86h1.81a3.1,3.1,0,0,0,2-.59,2,2,0,0,0,.74-1.62,2,2,0,0,0-.7-1.59,2.88,2.88,0,0,0-2-.61h-1.89Z" transform="translate(0 0)"/><path class="cls-3" d="M195,28.22a5.41,5.41,0,0,1-2.08-1.64l2.27-2.78a4.16,4.16,0,0,0,.58.61,3.08,3.08,0,0,0,.75.44,2,2,0,0,0,.81.18c1.13,0,1.7-.81,1.7-2.44V11.8H203V22.49a11.26,11.26,0,0,1-.18,2.1,6.5,6.5,0,0,1-.56,1.73,4.28,4.28,0,0,1-1,1.33,4.37,4.37,0,0,1-1.52.84,6.72,6.72,0,0,1-2.09.3,6.27,6.27,0,0,1-2.61-.57" transform="translate(0 0)"/><path class="cls-3" d="M58.53,28.88a8,8,0,0,1-3.2-.64,7.46,7.46,0,0,1-2.52-1.77,8,8,0,0,1-1.64-2.76,10.54,10.54,0,0,1-.59-3.58,10.43,10.43,0,0,1,.59-3.54,8.14,8.14,0,0,1,1.62-2.79,7.32,7.32,0,0,1,5.49-2.45,5.85,5.85,0,0,1,4.65,2.11H63V11.67h5.4V22.11c0,1.44.37,2,1.36,2a8.2,8.2,0,0,0,.91-.07v4.52a8.53,8.53,0,0,1-2.44.29,6.1,6.1,0,0,1-3-.65,4,4,0,0,1-1.65-2h-.06s-1.2,2.62-5,2.62M19.24,11.67h5.35V22.21c0,1.33.33,1.9,1.22,1.9a2.26,2.26,0,0,0,.66-.07V28.6a7.43,7.43,0,0,1-2.49.29c-3.16,0-4.74-1.69-4.74-5.1Zm23.33,0H48V29.2c0,4.34-2.13,6.5-6.35,6.5a13.85,13.85,0,0,1-2.35-.15V30.86c.55,0,.9.07,1.16.07,1.48,0,2.16-.65,2.16-2.38ZM0,4H16.58V9.2H5.68v5.51h9v5.12h-9v8.73H0ZM19.65,8.67a2.79,2.79,0,0,1-.91-2.15A2.83,2.83,0,0,1,19.17,5a2.94,2.94,0,0,1,1.16-1,3.44,3.44,0,0,1,1.61-.38,3.28,3.28,0,0,1,2.28.84,2.78,2.78,0,0,1,.92,2.14,2.8,2.8,0,0,1-.92,2.15,3.53,3.53,0,0,1-4.57,0m23.29-.13A2.8,2.8,0,0,1,42,6.38a2.77,2.77,0,0,1,.92-2.13,3.53,3.53,0,0,1,4.57,0,2.77,2.77,0,0,1,.92,2.13,2.8,2.8,0,0,1-.92,2.16,3.53,3.53,0,0,1-4.57,0m-14.58,20V11.67h5.39v2.49c.83-1.84,2.78-2.89,5.28-2.89a12.49,12.49,0,0,1,1.41.11v5.07a8.52,8.52,0,0,0-1.81-.19c-3.08,0-4.88,1.74-4.88,4.74v7.56Zm33.78-5.39a4.25,4.25,0,0,0,1.08-3A4.71,4.71,0,0,0,62.73,18a3.68,3.68,0,0,0-1.34-1.5,3.5,3.5,0,0,0-1.9-.54,3.56,3.56,0,0,0-2.73,1.17,4.3,4.3,0,0,0-1.08,3,4.33,4.33,0,0,0,1.06,3,3.55,3.55,0,0,0,2.73,1.16,3.51,3.51,0,0,0,2.67-1.16M89.45,22.1c0,1.41.28,1.91,1.18,1.91H91l.22,0v4.55a7.11,7.11,0,0,1-2.35.25c-3.21,0-4.8-1.73-4.8-5.2V19.64c0-2.4-1-3.71-2.63-3.71s-3.16,1.21-3.16,4.15v8.48h-5.4V11.67h5.4v2h0A6.87,6.87,0,0,1,80.61,12a6.69,6.69,0,0,1,2.8-.61,7.32,7.32,0,0,1,2.44.37,5,5,0,0,1,1.9,1.17A5.18,5.18,0,0,1,89,15.09a11.36,11.36,0,0,1,.44,3.34Z" transform="translate(0 0)"/></g></g></g></g></g></svg>