<svg xmlns="http://www.w3.org/2000/svg" xmlns:xlink="http://www.w3.org/1999/xlink" viewBox="0 0 199.69 40"><defs><style>.cls-1{fill:none;}.cls-2{clip-path:url(#clip-path);}.cls-3{fill:#fff;}</style><clipPath id="clip-path" transform="translate(0 0)"><rect class="cls-1" width="199.69" height="40"/></clipPath></defs><title>logo-firjan-sesi</title><g id="Camada_2" data-name="Camada 2"><g id="Camada_1-2" data-name="Camada 1"><g id="_Logo_SESI_Horizontal_Branca" data-name=" Logo SESI Horizontal Branca"><g class="cls-2"><g class="cls-2"><path class="cls-3" d="M149,28.57C127.12,28.57,123,40,97,40V34.28c24.63,0,28.57-11.42,52-11.42Zm0-17.14c-23.38,0-27.32,11.43-51.95,11.43v5.71c26,0,30.1-11.43,52-11.43ZM149,0C125.59,0,121.65,11.43,97,11.43v5.71c26,0,30.1-11.42,52-11.42Z" transform="translate(0 0)"/><path class="cls-3" d="M157.07,28.12a9,9,0,0,1-2.92-2l2.32-2.88a6.62,6.62,0,0,0,2,1.49,4.55,4.55,0,0,0,2,.51,2.7,2.7,0,0,0,1.09-.19,1.33,1.33,0,0,0,.28-2.26,7.6,7.6,0,0,0-2-.88c-.4-.14-.76-.27-1.08-.4a9.94,9.94,0,0,1-1-.47,9.24,9.24,0,0,1-1-.57,5.74,5.74,0,0,1-.8-.71,3.8,3.8,0,0,1-.65-.87,4.69,4.69,0,0,1-.4-1.06,5.3,5.3,0,0,1-.16-1.29,4.49,4.49,0,0,1,.74-2.5,5.08,5.08,0,0,1,2-1.79,6.12,6.12,0,0,1,2.77-.67,8.74,8.74,0,0,1,5.83,2.19l-2.25,2.92a6,6,0,0,0-3.45-1.61,1.71,1.71,0,0,0-1.12.35,1.21,1.21,0,0,0-.42.95,1.11,1.11,0,0,0,.5.93,9.68,9.68,0,0,0,1.95.93,24.21,24.21,0,0,1,2.85,1.23,4.31,4.31,0,0,1,2,2.16,5.15,5.15,0,0,1,.29,1.78,5.49,5.49,0,0,1-.38,2.07,4.57,4.57,0,0,1-1,1.53,5.78,5.78,0,0,1-1.43,1,7,7,0,0,1-1.63.59,8.27,8.27,0,0,1-4.93-.5" transform="translate(0 0)"/><polygon class="cls-3" points="168.54 11.8 179.48 11.8 179.48 15.32 172.41 15.32 172.41 18.54 177.99 18.54 177.99 22 172.41 22 172.41 25.04 179.98 25.04 179.98 28.56 168.54 28.56 168.54 11.8"/><path class="cls-3" d="M184.12,28.12a9,9,0,0,1-2.92-2l2.33-2.88a6.46,6.46,0,0,0,2,1.49,4.55,4.55,0,0,0,2,.51,2.7,2.7,0,0,0,1.09-.19,1.32,1.32,0,0,0,.28-2.26,7.65,7.65,0,0,0-2-.88c-.41-.14-.77-.27-1.09-.4a9.07,9.07,0,0,1-1-.47,9.24,9.24,0,0,1-1-.57,5.74,5.74,0,0,1-.8-.71,3.8,3.8,0,0,1-.65-.87,4.69,4.69,0,0,1-.4-1.06,5.3,5.3,0,0,1-.16-1.29,4.49,4.49,0,0,1,.74-2.5,5.08,5.08,0,0,1,2-1.79,6.12,6.12,0,0,1,2.77-.67,8.72,8.72,0,0,1,5.83,2.19l-2.25,2.92a6,6,0,0,0-3.45-1.61,1.71,1.71,0,0,0-1.12.35,1.21,1.21,0,0,0-.42.95,1.1,1.1,0,0,0,.51.93,9.36,9.36,0,0,0,1.93.93,23.82,23.82,0,0,1,2.86,1.23,4.31,4.31,0,0,1,2,2.16,5.15,5.15,0,0,1,.29,1.78,5.49,5.49,0,0,1-.38,2.07,4.57,4.57,0,0,1-1,1.53,6,6,0,0,1-1.43,1,7,7,0,0,1-1.63.59,8.27,8.27,0,0,1-4.93-.5" transform="translate(0 0)"/><rect class="cls-3" x="195.7" y="11.8" width="3.99" height="16.76"/><path class="cls-3" d="M58.53,28.88a8,8,0,0,1-3.2-.64,7.5,7.5,0,0,1-2.53-1.77,8,8,0,0,1-1.63-2.76,10.54,10.54,0,0,1-.59-3.58,10.43,10.43,0,0,1,.59-3.54,8.14,8.14,0,0,1,1.62-2.79,7.32,7.32,0,0,1,5.49-2.45,5.85,5.85,0,0,1,4.65,2.11H63V11.67h5.4V22.11c0,1.44.37,2,1.36,2a8.2,8.2,0,0,0,.91-.07v4.52a8.53,8.53,0,0,1-2.44.29,6.1,6.1,0,0,1-3-.65,4,4,0,0,1-1.65-2h-.06a5.32,5.32,0,0,1-5,2.62M19.24,11.67h5.35V22.21c0,1.33.33,1.9,1.22,1.9a2.26,2.26,0,0,0,.66-.07v4.57a7.77,7.77,0,0,1-2.49.28c-3.16,0-4.74-1.69-4.74-5.1Zm23.33,0H48V29.2c0,4.34-2.13,6.51-6.35,6.51a13.77,13.77,0,0,1-2.35-.16V30.86c.55,0,.9.07,1.16.07,1.48,0,2.16-.65,2.16-2.38ZM0,4H16.58V9.2H5.68v5.51h9v5.12h-9v8.73H0ZM19.65,8.67a2.8,2.8,0,0,1-.92-2.15A2.83,2.83,0,0,1,19.17,5a2.94,2.94,0,0,1,1.16-1,3.44,3.44,0,0,1,1.61-.38,3.26,3.26,0,0,1,2.28.84,2.78,2.78,0,0,1,.92,2.14,2.8,2.8,0,0,1-.92,2.15,3.53,3.53,0,0,1-4.57,0m23.29-.13A2.8,2.8,0,0,1,42,6.38a2.77,2.77,0,0,1,.92-2.13,3.28,3.28,0,0,1,2.28-.84,3.24,3.24,0,0,1,2.28.84,2.75,2.75,0,0,1,.93,2.13,2.78,2.78,0,0,1-.93,2.16,3.24,3.24,0,0,1-2.28.84,3.28,3.28,0,0,1-2.28-.84m-14.58,20V11.67h5.39v2.49c.83-1.83,2.78-2.89,5.28-2.89a12.17,12.17,0,0,1,1.4.11v5.07a8.35,8.35,0,0,0-1.8-.19c-3.08,0-4.88,1.74-4.88,4.74v7.56Zm33.78-5.39a4.25,4.25,0,0,0,1.08-3A4.71,4.71,0,0,0,62.73,18a3.68,3.68,0,0,0-1.34-1.5,3.5,3.5,0,0,0-1.9-.54,3.56,3.56,0,0,0-2.73,1.17,4.3,4.3,0,0,0-1.08,3,4.33,4.33,0,0,0,1.06,3,3.55,3.55,0,0,0,2.73,1.16,3.51,3.51,0,0,0,2.67-1.16M89.45,22.1c0,1.41.28,1.91,1.18,1.91H91l.22,0v4.55a7.11,7.11,0,0,1-2.35.25c-3.21,0-4.8-1.73-4.8-5.2V19.64c0-2.39-1-3.72-2.63-3.72s-3.16,1.22-3.16,4.16v8.48h-5.4V11.67h5.4v2h0A6.87,6.87,0,0,1,80.61,12a6.69,6.69,0,0,1,2.8-.61,7.58,7.58,0,0,1,2.44.37,5,5,0,0,1,1.9,1.17A5.16,5.16,0,0,1,89,15.1a11.24,11.24,0,0,1,.44,3.33Z" transform="translate(0 0)"/></g></g></g></g></g></svg>